<svg width="48" height="48" viewBox="0 0 48 48" fill="none" xmlns="http://www.w3.org/2000/svg">
<rect x="1" y="1" width="46" height="46" rx="21" stroke="#74B9FF" stroke-opacity="0.15" stroke-width="2"/>
<path d="M14.75 16C14.75 16.6904 15.3096 17.25 16 17.25C16.6904 17.25 17.25 16.6904 17.25 16C17.25 15.3096 16.6904 14.75 16 14.75C15.3096 14.75 14.75 15.3096 14.75 16Z" fill="#74B9FF" fill-opacity="0.4"/>
<path d="M30.75 16C30.75 16.6904 31.3096 17.25 32 17.25C32.6904 17.25 33.25 16.6904 33.25 16C33.25 15.3096 32.6904 14.75 32 14.75C31.3096 14.75 30.75 15.3096 30.75 16Z" fill="#74B9FF" fill-opacity="0.4"/>
<path d="M22.0148 18.2682C23.2446 17.5655 24.7542 17.5655 25.984 18.2682L27.984 19.4111C28.3059 19.5951 28.596 19.8199 28.8492 20.0771L23.9992 22.8484L19.1494 20.0772C19.4027 19.82 19.6928 19.5951 20.0148 19.4111L22.0148 18.2682Z" fill="#74B9FF"/>
<path d="M18.1465 21.8076C18.0498 22.1534 17.999 22.515 17.999 22.8839V25.1163C17.999 26.5517 18.7682 27.8771 20.0145 28.5892L22.0144 29.7321C22.3275 29.911 22.6587 30.0443 22.9988 30.1322V24.5804L18.1465 21.8076Z" fill="#74B9FF"/>
<path d="M25 30.1325C25.3402 30.0446 25.6716 29.9113 25.9848 29.7323L27.9848 28.5894C29.2311 27.8773 30.0002 26.5519 30.0002 25.1165V22.8841C30.0002 22.5152 29.9494 22.1535 29.8527 21.8076L25 24.5806V30.1325Z" fill="#74B9FF"/>
<path d="M30.75 32C30.75 32.6904 31.3096 33.25 32 33.25C32.6904 33.25 33.25 32.6904 33.25 32C33.25 31.3096 32.6904 30.75 32 30.75C31.3096 30.75 30.75 31.3096 30.75 32Z" fill="#74B9FF" fill-opacity="0.4"/>
<path d="M14.75 32C14.75 32.6904 15.3096 33.25 16 33.25C16.6904 33.25 17.25 32.6904 17.25 32C17.25 31.3096 16.6904 30.75 16 30.75C15.3096 30.75 14.75 31.3096 14.75 32Z" fill="#74B9FF" fill-opacity="0.4"/>
</svg>
