<svg width="48" height="48" viewBox="0 0 48 48" fill="none" xmlns="http://www.w3.org/2000/svg">
<rect x="1" y="1" width="46" height="46" rx="21" stroke="white" stroke-opacity="0.15" stroke-width="2"/>
<path fill-rule="evenodd" clip-rule="evenodd" d="M19.999 17C16.133 17 12.999 20.134 12.999 24C12.999 27.866 16.133 31 19.999 31H27.999C31.865 31 34.999 27.866 34.999 24C34.999 20.134 31.865 17 27.999 17H19.999ZM28.499 22.5C28.499 23.1904 29.0586 23.75 29.749 23.75C30.4394 23.75 30.999 23.1904 30.999 22.5C30.999 21.8096 30.4394 21.25 29.749 21.25C29.0586 21.25 28.499 21.8096 28.499 22.5ZM25.499 25.5C25.499 26.1904 26.0586 26.75 26.749 26.75C27.4394 26.75 27.999 26.1904 27.999 25.5C27.999 24.8096 27.4394 24.25 26.749 24.25C26.0586 24.25 25.499 24.8096 25.499 25.5ZM20.999 22C20.999 21.4477 20.5513 21 19.999 21C19.4467 21 18.999 21.4477 18.999 22V23H17.999C17.4467 23 16.999 23.4477 16.999 24C16.999 24.5523 17.4467 25 17.999 25H18.999V26C18.999 26.5523 19.4467 27 19.999 27C20.5513 27 20.999 26.5523 20.999 26V25H21.999C22.5513 25 22.999 24.5523 22.999 24C22.999 23.4477 22.5513 23 21.999 23H20.999V22Z" fill="#EFEFEF"/>
</svg>
