<svg width="24" height="24" viewBox="0 0 24 24" fill="none" xmlns="http://www.w3.org/2000/svg">
<g clip-path="url(#clip0_349_1931)">
<path d="M11.9993 7.33341C13.8403 7.33341 15.3327 5.84103 15.3327 4.00008C15.3327 2.15913 13.8403 0.666748 11.9993 0.666748C10.1584 0.666748 8.66602 2.15913 8.66602 4.00008C8.66602 5.84103 10.1584 7.33341 11.9993 7.33341Z" fill="#79818D"/>
<path d="M5.27054 12.9584C6.06387 12.5544 6.65187 11.865 6.92654 11.0184C7.20254 10.1717 7.13054 9.26771 6.72787 8.47438C6.32387 7.68104 5.63454 7.09171 4.78787 6.81704C3.03321 6.24771 1.15454 7.20904 0.586539 8.95704C0.019872 10.705 0.981205 12.589 2.72654 13.157C3.06654 13.2677 3.41454 13.3224 3.75987 13.3224C4.27987 13.3224 4.79321 13.201 5.27054 12.9584Z" fill="#79818D"/>
<path d="M8.86501 16.9805C7.38101 15.9032 5.29035 16.2312 4.21035 17.7178C3.68635 18.4378 3.47435 19.3192 3.61435 20.1992C3.75301 21.0778 4.22768 21.8512 4.94768 22.3738C5.52368 22.7912 6.20101 23.0112 6.89968 23.0112C7.07568 23.0112 7.25301 22.9978 7.42768 22.9698C8.30768 22.8312 9.07968 22.3565 9.60235 21.6365C10.1263 20.9165 10.3383 20.0352 10.1983 19.1565C10.0583 18.2778 9.58635 17.5045 8.86501 16.9805Z" fill="#79818D"/>
<path d="M15.1345 16.9808C14.4132 17.5048 13.9399 18.2768 13.8012 19.1568C13.6625 20.0368 13.8745 20.9168 14.3972 21.6368C14.9199 22.3582 15.6919 22.8315 16.5719 22.9702C16.7479 22.9982 16.9252 23.0115 17.0999 23.0115C17.7972 23.0115 18.4759 22.7915 19.0532 22.3728C19.7719 21.8502 20.2465 21.0768 20.3852 20.1982C20.5239 19.3182 20.3119 18.4368 19.7892 17.7168C18.7079 16.2288 16.6185 15.9008 15.1345 16.9795V16.9808Z" fill="#79818D"/>
<path d="M23.4125 8.959C22.8445 7.211 20.9645 6.24966 19.2125 6.819C18.3659 7.09366 17.6765 7.68166 17.2725 8.47633C16.8685 9.26966 16.7979 10.1723 17.0739 11.0203C17.3485 11.867 17.9365 12.555 18.7299 12.9603C19.2059 13.203 19.7205 13.3257 20.2405 13.3257C20.5872 13.3257 20.9352 13.271 21.2739 13.1603C23.0205 12.5923 23.9805 10.707 23.4125 8.959Z" fill="#79818D"/>
<path d="M14.1543 16.6327C14.357 16.6327 14.5636 16.5714 14.741 16.4407C15.1876 16.1154 15.2863 15.4914 14.961 15.0447L14.6676 14.6421C15.0783 14.0874 15.3303 13.4087 15.3303 12.6674C15.3303 12.6567 15.3276 12.6474 15.3276 12.6367L15.793 12.4861C16.3183 12.3154 16.605 11.7514 16.4356 11.2261C16.265 10.7021 15.7063 10.4127 15.1756 10.5834L14.7036 10.7367C14.289 10.1567 13.6916 9.72473 12.997 9.50473V9.00073C12.997 8.44873 12.549 8.00073 11.997 8.00073C11.445 8.00073 10.997 8.44873 10.997 9.00073V9.50473C10.3023 9.72473 9.70496 10.1567 9.2903 10.7367L8.8183 10.5834C8.28763 10.4127 7.72896 10.7021 7.5583 11.2261C7.38896 11.7514 7.67696 12.3154 8.20096 12.4861L8.6663 12.6367C8.6663 12.6474 8.66363 12.6567 8.66363 12.6674C8.66363 13.4087 8.91563 14.0874 9.3263 14.6421L9.03296 15.0447C8.70763 15.4914 8.8063 16.1167 9.25296 16.4407C9.43163 16.5701 9.63696 16.6327 9.83963 16.6327C10.149 16.6327 10.4543 16.4901 10.649 16.2207L10.945 15.8141C11.277 15.9247 11.6263 15.9994 11.9956 15.9994C12.365 15.9994 12.7143 15.9247 13.0463 15.8141L13.3423 16.2207C13.537 16.4901 13.8423 16.6327 14.1516 16.6327H14.1543ZM10.665 12.6661C10.665 11.9314 11.2623 11.3327 11.9983 11.3327C12.7343 11.3327 13.3316 11.9314 13.3316 12.6661C13.3316 13.4007 12.7343 13.9994 11.9983 13.9994C11.2623 13.9994 10.665 13.4007 10.665 12.6661Z" fill="#79818D"/>
</g>
<defs>
<clipPath id="clip0_349_1931">
<rect width="24" height="24" fill="white"/>
</clipPath>
</defs>
</svg>
