<svg width="32" height="32" viewBox="0 0 32 32" fill="none" xmlns="http://www.w3.org/2000/svg">
<path fill-rule="evenodd" clip-rule="evenodd" d="M18.4648 31.347L30.2034 24.6482C30.9771 24.2063 31.4728 23.5611 31.4728 22.8175C31.4728 22.0739 30.9771 21.43 30.2034 20.9867L18.4648 14.288C17.6871 13.8447 16.6996 13.6362 15.7371 13.6362C14.7745 13.6362 13.7857 13.8447 13.0093 14.288L1.27077 20.9894C0.497029 21.4313 0 22.0765 0 22.8201C0 23.5637 0.495717 24.2076 1.27077 24.6509L13.0106 31.3483C13.4552 31.6014 13.9693 31.7784 14.5069 31.8834C14.9096 31.962 15.3266 32.0001 15.7371 32.0001C16.1908 32.0001 16.6511 31.9542 17.0918 31.8584C17.5849 31.7509 18.0543 31.583 18.4648 31.3496V31.347ZM14.9568 27.9281L6.00107 22.8188L14.9568 17.7082C14.9568 17.7082 14.9738 17.6977 15.0158 17.682C15.0577 17.6662 15.1154 17.6479 15.1902 17.6308C15.3436 17.5954 15.5325 17.5718 15.7371 17.5718C15.9416 17.5718 16.1305 17.5941 16.2839 17.6308C16.3587 17.6479 16.4164 17.6662 16.4583 17.682C16.5003 17.6977 16.5187 17.7082 16.5174 17.7082L25.4731 22.8188L16.5147 27.9307C16.5147 27.9307 16.4951 27.9412 16.4531 27.957C16.4072 27.974 16.3429 27.9937 16.2577 28.012C16.1069 28.0448 15.9272 28.0645 15.7371 28.0645C15.5666 28.0645 15.4026 28.0488 15.2597 28.0199H15.2584C15.164 28.0015 15.0905 27.9806 15.0368 27.9609C14.9843 27.9425 14.9594 27.9294 14.9581 27.9281H14.9568Z" fill="#4653C3"/>
<path fill-rule="evenodd" clip-rule="evenodd" d="M18.4648 24.5276L30.2034 17.8289C30.9771 17.387 31.4728 16.7417 31.4728 15.9982C31.4728 15.2546 30.9771 14.6107 30.2034 14.1674L18.4648 7.46867C17.6871 7.02541 16.6996 6.81689 15.7371 6.81689C14.7745 6.81689 13.7857 7.02541 13.0093 7.46867L1.27077 14.17C0.497029 14.612 0 15.2572 0 15.9995C0 16.7417 0.495717 17.387 1.27077 17.8302L13.0106 24.5276C13.4552 24.7807 13.9693 24.9578 14.5069 25.0627C14.9096 25.1414 15.3266 25.1794 15.7371 25.1794C16.1908 25.1794 16.6511 25.1335 17.0918 25.0378C17.5849 24.9303 18.0543 24.7624 18.4648 24.529V24.5276ZM14.9568 21.1088L6.00107 15.9995L14.9568 10.8889C14.9568 10.8889 14.9738 10.8784 15.0158 10.8626C15.0577 10.8469 15.1154 10.8285 15.1902 10.8115C15.3436 10.7761 15.5325 10.7538 15.7371 10.7538C15.9416 10.7538 16.1305 10.7761 16.2839 10.8115C16.3587 10.8285 16.4164 10.8469 16.4583 10.8626C16.5003 10.8784 16.5187 10.8889 16.5174 10.8889L25.4731 15.9995L16.5147 21.1114C16.5147 21.1114 16.4951 21.1219 16.4531 21.1376C16.4072 21.1547 16.3429 21.1743 16.2577 21.1927C16.1069 21.2255 15.9272 21.2452 15.7371 21.2452C15.5666 21.2452 15.4026 21.2294 15.2597 21.2006H15.2584C15.164 21.1822 15.0905 21.1612 15.0368 21.1416C14.9843 21.1232 14.9594 21.1101 14.9581 21.1088H14.9568Z" fill="#5E6CE8"/>
<path d="M10.4206 16.2315L13.0093 17.7081C13.4539 17.9612 13.968 18.1383 14.5056 18.2432C14.9082 18.3219 15.3253 18.3599 15.7357 18.3599C16.1895 18.3599 16.6498 18.314 17.0904 18.2183C17.5835 18.1107 18.053 17.9429 18.4635 17.7094L21.1362 16.1843L23.4417 14.8676L27.2474 12.6972L30.2034 11.0107C30.9771 10.5687 31.4728 9.92353 31.4728 9.17995C31.4728 8.43638 30.9771 7.79247 30.2034 7.34921L18.4648 0.651777C17.6871 0.208516 16.6996 0 15.7371 0C14.7745 0 13.7857 0.208516 13.0093 0.651777L1.27077 7.35052C0.497029 7.79247 0 8.43769 0 9.18126C0 9.92484 0.495717 10.5687 1.27077 11.012L4.33163 12.7588L8.13737 14.9292L10.4219 16.2315H10.4206Z" fill="#7E8BFF"/>
</svg>
