<svg width="48" height="48" viewBox="0 0 48 48" fill="none" xmlns="http://www.w3.org/2000/svg">
<rect x="1" y="1" width="46" height="46" rx="21" stroke="#DCDEE1" stroke-width="2"/>
<path d="M26 32H27M26 32V22M26 32H16M26 22V19C26 17.3432 24.6569 16 23 16H19C17.3432 16 16 17.3432 16 19V32M26 22H27C28.6569 22 30 23.3431 30 25V27.5C30 28.3284 30.6716 29 31.5 29C32.3284 29 33 28.3284 33 27.5V21.2426C33 20.447 32.6839 19.6839 32.1213 19.1213L31 18M16 32H15M23 22H19" stroke="#696969" stroke-width="2" stroke-linecap="round" stroke-linejoin="round"/>
</svg>
