<svg width="24" height="24" viewBox="0 0 24 24" fill="none" xmlns="http://www.w3.org/2000/svg">
<g clip-path="url(#clip0_349_1882)">
<path d="M6.99772 6.99862C8.47048 6.99862 9.66439 5.80471 9.66439 4.33195C9.66439 2.85919 8.47048 1.66528 6.99772 1.66528C5.52496 1.66528 4.33105 2.85919 4.33105 4.33195C4.33105 5.80471 5.52496 6.99862 6.99772 6.99862Z" stroke="#79818D" stroke-width="2" stroke-linecap="round" stroke-linejoin="round"/>
<path d="M4.85334 16.5086C4.04801 16.39 3.33601 16.2166 2.73201 16.034C2.08001 15.8366 1.64134 15.1873 1.78667 14.5206C2.31067 12.1246 4.44401 10.3313 6.99734 10.3313C8.08801 10.3313 9.10267 10.6593 9.94801 11.2206" stroke="#79818D" stroke-width="2" stroke-linecap="round" stroke-linejoin="round"/>
<path d="M19.1406 16.5086C19.9459 16.39 20.6579 16.2166 21.2619 16.034C21.9139 15.8366 22.3526 15.1873 22.2072 14.5206C21.6832 12.1246 19.5499 10.3313 16.9966 10.3313C15.9059 10.3313 14.8912 10.6593 14.0459 11.2206" stroke="#79818D" stroke-width="2" stroke-linecap="round" stroke-linejoin="round"/>
<path d="M16.9977 6.99862C18.4705 6.99862 19.6644 5.80471 19.6644 4.33195C19.6644 2.85919 18.4705 1.66528 16.9977 1.66528C15.525 1.66528 14.3311 2.85919 14.3311 4.33195C14.3311 5.80471 15.525 6.99862 16.9977 6.99862Z" stroke="#79818D" stroke-width="2" stroke-linecap="round" stroke-linejoin="round"/>
<path d="M11.9971 22.3311C14.2062 22.3311 15.9971 20.5402 15.9971 18.3311C15.9971 16.1219 14.2062 14.3311 11.9971 14.3311C9.78793 14.3311 7.99707 16.1219 7.99707 18.3311C7.99707 20.5402 9.78793 22.3311 11.9971 22.3311Z" stroke="#79818D" stroke-width="2" stroke-linecap="round" stroke-linejoin="round"/>
<path d="M11.9971 17.3311V19.3311" stroke="#79818D" stroke-width="2" stroke-linecap="round" stroke-linejoin="round"/>
</g>
<defs>
<clipPath id="clip0_349_1882">
<rect width="24" height="24" fill="white"/>
</clipPath>
</defs>
</svg>
