<svg width="24" height="24" viewBox="0 0 24 24" fill="none" xmlns="http://www.w3.org/2000/svg">
<path d="M3.78809 11.5845C4.11609 9.6685 5.09742 7.97516 6.49609 6.74316" stroke="#79818D" stroke-width="2" stroke-linecap="round" stroke-linejoin="round"/>
<path d="M20.2148 11.5845C19.8868 9.6685 18.9055 7.97516 17.5068 6.74316" stroke="#79818D" stroke-width="2" stroke-linecap="round" stroke-linejoin="round"/>
<path d="M14.6673 20.8977C13.83 21.1804 12.9327 21.3337 12.0007 21.3337C11.0687 21.3337 10.1713 21.1804 9.33398 20.8977" stroke="#79818D" stroke-width="2" stroke-linecap="round" stroke-linejoin="round"/>
<path d="M12.0007 7.66659C13.4735 7.66659 14.6673 6.47268 14.6673 4.99992C14.6673 3.52716 13.4735 2.33325 12.0007 2.33325C10.5279 2.33325 9.33398 3.52716 9.33398 4.99992C9.33398 6.47268 10.5279 7.66659 12.0007 7.66659Z" stroke="#79818D" stroke-width="2" stroke-linecap="round" stroke-linejoin="round"/>
<path d="M5.07194 19.6666C6.5447 19.6666 7.73861 18.4727 7.73861 16.9999C7.73861 15.5271 6.5447 14.3333 5.07194 14.3333C3.59918 14.3333 2.40527 15.5271 2.40527 16.9999C2.40527 18.4727 3.59918 19.6666 5.07194 19.6666Z" stroke="#79818D" stroke-width="2" stroke-linecap="round" stroke-linejoin="round"/>
<path d="M18.9264 19.6666C20.3992 19.6666 21.5931 18.4727 21.5931 16.9999C21.5931 15.5271 20.3992 14.3333 18.9264 14.3333C17.4536 14.3333 16.2598 15.5271 16.2598 16.9999C16.2598 18.4727 17.4536 19.6666 18.9264 19.6666Z" stroke="#79818D" stroke-width="2" stroke-linecap="round" stroke-linejoin="round"/>
</svg>
