<svg width="24" height="24" viewBox="0 0 24 24" fill="none" xmlns="http://www.w3.org/2000/svg">
<path d="M19.6686 7.99935H5.66862C4.74995 7.99935 4.00195 7.25135 4.00195 6.33268C4.00195 5.41402 4.74995 4.66602 5.66862 4.66602C6.22062 4.66602 6.66862 4.21802 6.66862 3.66602C6.66862 3.11402 6.22062 2.66602 5.66862 2.66602C3.64595 2.66602 2.00195 4.31002 2.00195 6.33268V17.666C2.00195 19.6887 3.64595 21.3327 5.66862 21.3327H19.6686C20.9553 21.3327 22.002 20.286 22.002 18.9993V10.3327C22.002 9.04602 20.9553 7.99935 19.6686 7.99935ZM17.002 16.3327C16.0833 16.3327 15.3353 15.5847 15.3353 14.666C15.3353 13.7473 16.0833 12.9993 17.002 12.9993C17.9206 12.9993 18.6686 13.7473 18.6686 14.666C18.6686 15.5847 17.9206 16.3327 17.002 16.3327Z" fill="#79818D"/>
<path d="M8.0403 6.67332C7.89231 6.67332 7.74297 6.64132 7.60164 6.57198C7.10564 6.32932 6.9003 5.73065 7.14297 5.23465L8.7523 1.94665C9.02297 1.38932 9.49764 0.967985 10.0856 0.762652C10.6776 0.558652 11.3083 0.595985 11.8683 0.867985L19.887 4.75732C20.3843 4.99865 20.591 5.59599 20.351 6.09332C20.1096 6.59065 19.5123 6.79732 19.015 6.55732L10.995 2.66798C10.887 2.61465 10.791 2.63598 10.7403 2.65332C10.691 2.67065 10.6016 2.71465 10.5496 2.82265L8.93897 6.11332C8.76564 6.46799 8.40964 6.67332 8.0403 6.67332Z" fill="#79818D"/>
</svg>
