<svg width="24" height="24" viewBox="0 0 24 24" fill="none" xmlns="http://www.w3.org/2000/svg">
<g clip-path="url(#clip0_324_2323)">
<path d="M21.9183 18.0981C21.9223 17.5606 23.972 17.5837 23.958 17.0812C23.948 16.6939 23.0402 16.7029 23.3254 15.8832C23.7458 14.6622 23.974 13.3511 23.974 11.987C23.974 5.36647 18.6055 0 11.987 0C5.36648 0 6.07753e-06 5.36647 6.07753e-06 11.987C-0.00136156 13.3436 0.228101 14.6906 0.678572 15.9703C0.848713 16.5138 0.00200775 16.7269 0.00200775 17.0512C0.00200775 17.5596 1.78549 17.4916 1.78549 18.0821C1.78549 18.5985 0.0230253 18.7566 0.0230253 19.2771C0.0230253 19.9947 3.92728 19.7445 3.97632 20.362C4.01535 20.8394 2.6352 20.8674 2.62619 21.3768C2.61318 22.1895 7.95564 21.9233 7.95564 22.4647C7.95564 22.8741 5.52561 22.7259 5.52561 23.2093C5.52561 23.6927 8.72428 24 12.2492 24C15.7742 24 18.2072 23.6077 18.2072 23.1833C18.2072 22.76 15.9373 22.848 15.9843 22.4647C16.0664 21.7972 21.1026 22.1384 21.1026 21.3668C21.1026 20.9595 19.7174 20.8644 19.7615 20.426C19.8255 19.8055 23.974 19.8986 23.974 19.255C23.974 18.7496 21.9193 18.6245 21.9213 18.1001L21.9183 18.0981ZM18.7056 16.5408C18.5955 16.9501 19.8586 17.0112 19.8586 17.4385C19.8586 17.958 16.0073 17.7508 16.0454 18.4384C16.0694 18.8707 18.7817 18.9438 18.7296 19.3962C18.6556 20.0507 14.5301 19.7244 14.4891 20.351C14.4591 20.8113 16.5028 20.8264 16.5068 21.2457C16.5108 21.599 14.9014 21.7912 11.8229 21.7912C8.31293 21.7912 6.60851 21.602 6.80167 21.2077C6.98282 20.8394 10.0894 20.9074 10.0584 20.3279C10.0264 19.7495 4.54179 19.9206 4.37565 19.3591C4.23854 18.8927 6.17815 18.7967 6.16614 18.3533C6.15313 17.9019 3.68107 18.004 3.62703 17.4575C3.592 17.0972 4.91911 17.1213 4.86206 16.6689C4.82002 16.3406 4.27157 16.3867 3.9473 15.7081C3.32219 14.3586 3.04702 12.8735 3.14717 11.3896C3.24732 9.90581 3.71957 8.4711 4.52035 7.21789C5.32112 5.96467 6.42462 4.93332 7.72904 4.21899C9.03346 3.50465 10.4968 3.13035 11.984 3.13061C13.4419 3.13025 14.8774 3.48986 16.1629 4.17752C17.4485 4.86518 18.5444 5.8596 19.3534 7.07252C20.1623 8.28544 20.6593 9.67932 20.8001 11.1304C20.941 12.5815 20.7214 14.045 20.1608 15.3908C19.7455 16.3336 18.8097 16.1445 18.7026 16.5418H18.7046L18.7056 16.5408Z" fill="#131417"/>
</g>
<defs>
<clipPath id="clip0_324_2323">
<rect width="24" height="24" fill="white"/>
</clipPath>
</defs>
</svg>
