<svg width="18" height="18" viewBox="0 0 18 18" fill="none" xmlns="http://www.w3.org/2000/svg">
<path d="M3 4.875V12.75C3 13.9927 4.00736 15 5.25 15H12.75C13.9927 15 15 13.9927 15 12.75V9C15 7.75732 13.9927 6.75 12.75 6.75H12M3 4.875C3 5.91053 3.83947 6.75 4.875 6.75H12M3 4.875C3 3.83947 3.83947 3 4.875 3H10.5C11.3284 3 12 3.67157 12 4.5V6.75" stroke="#824600" stroke-width="1.5" stroke-linecap="square" stroke-linejoin="round"/>
<path d="M11.625 10.2188C11.9874 10.2188 12.2812 10.5126 12.2812 10.875C12.2812 11.2374 11.9874 11.5312 11.625 11.5312C11.2626 11.5312 10.9688 11.2374 10.9688 10.875C10.9688 10.5126 11.2626 10.2188 11.625 10.2188Z" fill="#824600" stroke="#824600" stroke-width="0.5625"/>
</svg>
