<svg width="24" height="24" viewBox="0 0 24 24" fill="none" xmlns="http://www.w3.org/2000/svg">
<g clip-path="url(#clip0_349_1841)">
<path d="M14.335 10.667C14.8872 10.667 15.335 10.2193 15.335 9.66699C15.335 9.11471 14.8872 8.66699 14.335 8.66699C13.7827 8.66699 13.335 9.11471 13.335 9.66699C13.335 10.2193 13.7827 10.667 14.335 10.667Z" fill="#79818D"/>
<path d="M18.335 10.667C18.8872 10.667 19.335 10.2193 19.335 9.66699C19.335 9.11471 18.8872 8.66699 18.335 8.66699C17.7827 8.66699 17.335 9.11471 17.335 9.66699C17.335 10.2193 17.7827 10.667 18.335 10.667Z" fill="#79818D"/>
<path d="M16.3359 9.00073C16.8882 9.00073 17.3359 8.55301 17.3359 8.00073C17.3359 7.44845 16.8882 7.00073 16.3359 7.00073C15.7837 7.00073 15.3359 7.44845 15.3359 8.00073C15.3359 8.55301 15.7837 9.00073 16.3359 9.00073Z" fill="#79818D"/>
<path d="M16.3359 12.3328C16.8882 12.3328 17.3359 11.885 17.3359 11.3328C17.3359 10.7805 16.8882 10.3328 16.3359 10.3328C15.7837 10.3328 15.3359 10.7805 15.3359 11.3328C15.3359 11.885 15.7837 12.3328 16.3359 12.3328Z" fill="#79818D"/>
<path d="M7.66895 8.00073V11.3341" stroke="#79818D" stroke-width="2" stroke-linecap="round" stroke-linejoin="round"/>
<path d="M9.33529 9.66675H6.00195" stroke="#79818D" stroke-width="2" stroke-linecap="round" stroke-linejoin="round"/>
<path d="M8.31055 15.6667H15.6959" stroke="#79818D" stroke-width="2" stroke-linecap="round" stroke-linejoin="round"/>
<path d="M7.66895 17.3328C8.77352 17.3328 9.66895 16.4373 9.66895 15.3328C9.66895 14.2282 8.77352 13.3328 7.66895 13.3328C6.56437 13.3328 5.66895 14.2282 5.66895 15.3328C5.66895 16.4373 6.56437 17.3328 7.66895 17.3328Z" fill="#79818D"/>
<path d="M16.335 17.3328C17.4395 17.3328 18.335 16.4373 18.335 15.3328C18.335 14.2282 17.4395 13.3328 16.335 13.3328C15.2304 13.3328 14.335 14.2282 14.335 15.3328C14.335 16.4373 15.2304 17.3328 16.335 17.3328Z" fill="#79818D"/>
<path d="M18.899 17.9134C19.255 18.6027 19.991 19.0627 20.835 18.9934C21.9044 18.9067 22.6764 17.9201 22.6684 16.8481C22.6577 15.2681 22.4444 13.3454 22.0577 11.1667C21.163 6.11741 19.2337 3.66675 16.6684 3.66675C15.4884 3.66675 14.439 4.18675 13.707 5.00008H12.0017H10.2963C9.56434 4.18675 8.515 3.66675 7.335 3.66675C4.76967 3.66675 2.84034 6.11741 1.94567 11.1667C1.56034 13.3454 1.34567 15.2667 1.335 16.8481C1.32834 17.9201 2.10034 18.9067 3.16834 18.9934C4.01234 19.0627 4.74834 18.6014 5.10434 17.9134" stroke="#79818D" stroke-width="2" stroke-linecap="round" stroke-linejoin="round"/>
</g>
<defs>
<clipPath id="clip0_349_1841">
<rect width="24" height="24" fill="white"/>
</clipPath>
</defs>
</svg>
