<svg width="24" height="24" viewBox="0 0 24 24" fill="none" xmlns="http://www.w3.org/2000/svg">
<path d="M7.9541 10.543L14.7128 6.78833" stroke="#79818D" stroke-width="2" stroke-linecap="round" stroke-linejoin="round"/>
<path d="M7.9541 13.4563L14.7128 17.211" stroke="#79818D" stroke-width="2" stroke-linecap="round" stroke-linejoin="round"/>
<path d="M5.33203 14.999C6.98889 14.999 8.33203 13.6559 8.33203 11.999C8.33203 10.3422 6.98889 8.99902 5.33203 8.99902C3.67518 8.99902 2.33203 10.3422 2.33203 11.999C2.33203 13.6559 3.67518 14.999 5.33203 14.999Z" stroke="#79818D" stroke-width="2" stroke-linecap="round" stroke-linejoin="round"/>
<path d="M17.332 8.33325C18.9889 8.33325 20.332 6.99011 20.332 5.33325C20.332 3.6764 18.9889 2.33325 17.332 2.33325C15.6752 2.33325 14.332 3.6764 14.332 5.33325C14.332 6.99011 15.6752 8.33325 17.332 8.33325Z" stroke="#79818D" stroke-width="2" stroke-linecap="round" stroke-linejoin="round"/>
<path d="M17.332 21.667C18.9889 21.667 20.332 20.3238 20.332 18.667C20.332 17.0101 18.9889 15.667 17.332 15.667C15.6752 15.667 14.332 17.0101 14.332 18.667C14.332 20.3238 15.6752 21.667 17.332 21.667Z" stroke="#79818D" stroke-width="2" stroke-linecap="round" stroke-linejoin="round"/>
</svg>
