<svg width="24" height="24" viewBox="0 0 24 24" fill="none" xmlns="http://www.w3.org/2000/svg">
<g clip-path="url(#clip0_324_2402)">
<path d="M21.9425 18.1165C21.9458 17.579 23.9967 17.6021 23.9835 17.0987C23.9758 16.7998 23.4307 16.7371 23.3164 16.3436C23.2966 16.2711 23.2911 16.1876 23.3031 16.0898C23.3119 16.0315 23.3262 15.9688 23.3504 15.9007C23.7703 14.6774 24 13.3651 24 12C23.9989 5.37239 18.6265 0 12 0C5.37347 0 0 5.37239 0 12C0 13.3574 0.226409 14.662 0.64186 15.8787C0.64407 15.8897 0.648439 15.9018 0.652859 15.9139C0.664938 15.9458 0.674806 15.9755 0.683647 16.0051C0.831982 16.5371 0.00328963 16.7492 0.00328963 17.0701C0.00328963 17.579 1.78824 17.5109 1.78824 18.1022C1.78824 18.6177 0.0230776 18.7771 0.0230776 19.298C0.0230776 20.0169 3.93257 19.7662 3.98094 20.3839C4.01939 20.861 2.63672 20.8895 2.62901 21.3995C2.61586 22.2128 7.96409 21.9469 7.96409 22.4887C7.96409 22.8987 5.53178 22.7503 5.53178 23.235C5.53178 23.7197 8.73347 24.0253 12.2627 24.0253C15.7919 24.0253 18.2264 23.6329 18.2264 23.2086C18.2264 22.7844 15.9545 22.8723 16.0007 22.4887C16.0821 21.8216 21.1247 22.1623 21.1247 21.3896C21.1247 20.983 19.7377 20.8873 19.7827 20.4477C19.8465 19.8278 23.9978 19.919 23.9978 19.275C23.9978 18.7683 21.9403 18.6441 21.9436 18.1176L21.9425 18.1165ZM16.5657 21.15C16.5657 21.505 14.9577 21.6666 11.8703 21.6666C9.34567 21.6666 6.83857 21.5083 6.83857 21.0962C6.83857 20.684 9.82928 20.6466 11.8857 20.6499C14.6235 20.6554 16.5668 20.7818 16.5668 21.15H16.5657ZM12 3.13354C15.7853 3.13354 19.0156 5.50541 20.2872 8.84449C20.4345 9.27752 19.9014 9.25115 19.5255 9.25115H18.5034C17.7736 9.25115 16.8547 9.33909 16.8547 9.53908C16.8547 9.7897 19.0859 9.77541 19.331 9.77541C20.0509 9.77541 20.6148 9.82928 20.6972 10.2711C20.8082 10.8306 20.8665 11.4087 20.8665 12C20.8665 13.1892 20.6313 14.3235 20.207 15.3588C20.0685 15.6633 19.8883 15.8216 19.6684 15.9535C18.6133 16.5404 16.7008 16.4349 16.7008 16.7888C16.7008 17.3021 19.9223 17.0834 19.9267 17.5296C19.9333 18.211 14.1795 17.8066 14.1795 18.4209C14.1795 19.0299 18.8089 18.7463 18.8089 19.3849C18.8089 19.7058 17.3218 19.8245 15.7018 19.8652C13.1837 19.8982 8.73234 19.8795 7.05511 19.8212C7.05511 19.8212 7.05511 19.8212 7.05732 19.8234C5.92194 19.7827 4.95586 19.6278 4.57664 19.464C4.47225 19.4189 4.46783 19.2925 4.56786 19.2409C5.71424 18.6507 12.7144 19.1211 12.7144 18.4352C12.7144 17.7494 5.79776 18.2242 5.80326 17.6296C5.80763 17.2065 8.82578 17.2438 11.2196 17.2438C14.3202 17.2438 15.272 17.0889 15.2709 16.8657C15.2687 16.4162 11.4581 16.68 11.4438 16.1755C11.4306 15.6864 17.4746 16.0436 17.4746 15.5644C17.4746 15.26 14.8489 15.2314 12.2231 15.2412C9.59737 15.2512 6.97159 15.2555 6.97159 15.5809C6.97159 15.949 10.0788 15.8062 10.0788 16.1755C10.0788 16.4667 8.37075 16.5272 6.58801 16.5272C5.41089 16.5272 4.49862 16.4382 4.05125 15.8831C4.01502 15.8369 3.97765 15.771 3.94794 15.7106C3.4281 14.5818 3.1357 13.3255 3.1357 12.0011C3.1357 7.10461 7.10456 3.13575 12.0011 3.13575L12 3.13354Z" fill="#131417"/>
<path d="M11.8186 14.5532C15.6369 14.5532 19.3552 14.6082 19.3552 14.1817C19.3552 13.6651 14.0234 13.7256 11.2526 13.7256C9.05548 13.7256 5.11632 13.6563 5.11632 14.1476C5.11632 14.639 9.527 14.5532 11.8175 14.5532H11.8186Z" fill="#131417"/>
<path d="M14.285 13.087C16.7954 13.087 18.0527 13.0573 18.0527 12.7551C18.0527 12.3176 14.6345 12.5605 14.6345 12.1264C14.6345 11.745 16.7943 11.9593 16.7943 11.5504C16.7943 11.2284 14.3763 11.2581 13.0573 11.2581C11.5955 11.2581 10.1557 11.313 10.1557 11.5878C10.1557 11.9429 13.841 11.7439 13.841 12.1077C13.841 12.6287 7.99374 12.2528 7.99374 12.7551C7.99374 13.231 11.7944 13.087 14.2839 13.087H14.285Z" fill="#131417"/>
<path d="M16.7481 10.7602C17.2856 10.7602 18.8628 10.7273 18.8628 10.5107C18.8628 10.2942 17.6944 10.2249 16.4799 10.2271C15.6457 10.2271 13.9443 10.2414 13.9443 10.4854C13.9443 10.7294 15.2357 10.7602 16.7481 10.7602Z" fill="#131417"/>
<path d="M17.6571 11.5571C17.6571 11.7615 18.5594 11.845 19.2508 11.845C19.6508 11.845 20.4125 11.7615 20.4125 11.5999C20.4125 11.4043 19.63 11.3438 19.154 11.3372C18.5375 11.3295 17.6571 11.3801 17.6571 11.5559V11.5571Z" fill="#131417"/>
</g>
<defs>
<clipPath id="clip0_324_2402">
<rect width="24" height="24" fill="white"/>
</clipPath>
</defs>
</svg>
