<svg width="24" height="24" viewBox="0 0 24 24" fill="none" xmlns="http://www.w3.org/2000/svg">
<path d="M7.66862 12.6683C8.58909 12.6683 9.33529 11.9221 9.33529 11.0016C9.33529 10.0812 8.58909 9.33496 7.66862 9.33496C6.74815 9.33496 6.00195 10.0812 6.00195 11.0016C6.00195 11.9221 6.74815 12.6683 7.66862 12.6683Z" fill="#79818D"/>
<path d="M17.5933 11.8464C16.2093 10.461 13.792 10.461 12.408 11.8464L4.30664 19.949C4.70664 20.1877 5.16931 20.3344 5.66797 20.3344H18.3346C19.808 20.3344 21.0013 19.1397 21.0013 17.6677V15.253L17.5933 11.8464Z" fill="#79818D"/>
<path d="M17.6673 3.33472H6.33398C5.78198 3.33472 5.33398 2.88672 5.33398 2.33472C5.33398 1.78272 5.78198 1.33472 6.33398 1.33472H17.6673C18.2193 1.33472 18.6673 1.78272 18.6673 2.33472C18.6673 2.88672 18.2193 3.33472 17.6673 3.33472Z" fill="#79818D"/>
<path d="M18.3353 21.3347H5.66862C3.64595 21.3347 2.00195 19.6907 2.00195 17.668V9.00138C2.00195 6.97872 3.64595 5.33472 5.66862 5.33472H18.3353C20.358 5.33472 22.002 6.97872 22.002 9.00138V17.668C22.002 19.6907 20.358 21.3347 18.3353 21.3347ZM5.66862 7.33472C4.74995 7.33472 4.00195 8.08272 4.00195 9.00138V17.668C4.00195 18.5867 4.74995 19.3347 5.66862 19.3347H18.3353C19.254 19.3347 20.002 18.5867 20.002 17.668V9.00138C20.002 8.08272 19.254 7.33472 18.3353 7.33472H5.66862Z" fill="#79818D"/>
</svg>
