<svg width="48" height="48" viewBox="0 0 48 48" fill="none" xmlns="http://www.w3.org/2000/svg">
<rect x="1" y="1" width="46" height="46" rx="21" stroke="#FF4245" stroke-opacity="0.15" stroke-width="2"/>
<path d="M24 33.2148C28.1421 33.2148 31.5 29.7148 31.5 25.2148C31.5 20.2121 27.0793 16.6589 25.264 15.4107C24.8382 15.1179 24.2732 15.2437 23.9768 15.6671L21.6615 18.9746C21.3164 19.4676 20.6098 19.5295 20.1843 19.104C19.8064 18.726 19.1897 18.7237 18.8506 19.1369C17.2835 21.0469 16.5 23.4266 16.5 25.2148C16.5 29.7148 19.8579 33.2148 24 33.2148ZM24 33.2148C25.6569 33.2148 27 31.6817 27 29.7904C27 27.7073 25.3369 26.1896 24.4872 25.5502C24.1953 25.3305 23.8047 25.3305 23.5128 25.5502C22.6631 26.1896 21 27.7073 21 29.7904C21 31.6817 22.3431 33.2148 24 33.2148Z" stroke="#FF4245" stroke-width="2" stroke-linejoin="round"/>
</svg>
