<svg width="24" height="24" viewBox="0 0 24 24" fill="none" xmlns="http://www.w3.org/2000/svg">
<g clip-path="url(#clip0_349_1873)">
<path d="M8.33268 20.6686H6.99935C5.72735 20.6686 4.69268 19.6432 4.67001 18.3766L4.90601 18.6526C5.10335 18.8832 5.38335 19.0019 5.66601 19.0019C5.89535 19.0019 6.12735 18.9219 6.31668 18.7606C6.73535 18.4006 6.78468 17.7699 6.42468 17.3499L4.42468 15.0166C4.04468 14.5739 3.28601 14.5739 2.90601 15.0166L0.906014 17.3499C0.546014 17.7686 0.595348 18.4006 1.01401 18.7606C1.43268 19.1206 2.06335 19.0712 2.42468 18.6526L2.66868 18.3672C2.68735 20.7406 4.62068 22.6672 6.99801 22.6672H8.33135C8.88335 22.6672 9.33135 22.2192 9.33135 21.6672C9.33135 21.1152 8.88335 20.6672 8.33135 20.6672L8.33268 20.6686Z" fill="#79818D"/>
<path d="M22.9834 5.24358C22.5634 4.88225 21.9327 4.93291 21.5727 5.35158L21.3287 5.63691C21.31 3.26358 19.3767 1.33691 16.9993 1.33691H15.666C15.114 1.33691 14.666 1.78491 14.666 2.33691C14.666 2.88891 15.114 3.33691 15.666 3.33691H16.9993C18.2713 3.33691 19.306 4.36225 19.3287 5.62891L19.0927 5.35291C18.7327 4.93425 18.102 4.88491 17.682 5.24491C17.2633 5.60491 17.214 6.23558 17.574 6.65558L19.574 8.98891C19.7647 9.21025 20.042 9.33825 20.3327 9.33825C20.6233 9.33825 20.902 9.21025 21.0914 8.98891L23.0914 6.65558C23.4514 6.23691 23.402 5.60358 22.9834 5.24358Z" fill="#79818D"/>
<path d="M7.66439 14.0014C8.21639 14.0014 8.66439 13.5534 8.66439 13.0014C8.66439 12.4494 8.21639 12.0014 7.66439 12.0014C5.27505 12.0014 3.33105 10.0574 3.33105 7.66805C3.33105 5.27872 5.27505 3.33472 7.66439 3.33472C10.0537 3.33472 11.9977 5.27872 11.9977 7.66805C11.9977 8.22005 12.4457 8.66805 12.9977 8.66805C13.5497 8.66805 13.9977 8.22005 13.9977 7.66805C13.9977 4.17605 11.1564 1.33472 7.66439 1.33472C4.17239 1.33472 1.33105 4.17605 1.33105 7.66805C1.33105 11.16 4.17239 14.0014 7.66439 14.0014Z" fill="#79818D"/>
<circle cx="17.001" cy="17.0007" r="6" fill="#79818D"/>
</g>
<defs>
<clipPath id="clip0_349_1873">
<rect width="24" height="24" fill="white"/>
</clipPath>
</defs>
</svg>
