<svg width="24" height="24" viewBox="0 0 24 24" fill="none" xmlns="http://www.w3.org/2000/svg">
<g clip-path="url(#clip0_324_2386)">
<path d="M12 23.9109V19.8396C11.5902 19.8396 11.1715 19.804 10.7617 19.7416L10.1203 23.7595C10.7439 23.8664 11.3764 23.9109 12 23.9109ZM13.8708 23.7684C14.4944 23.6704 15.1091 23.5278 15.706 23.3318L14.4499 19.4566C14.0579 19.5813 13.6481 19.6793 13.2383 19.7416L13.8708 23.7684ZM8.29399 23.3318L9.55011 19.4655C9.15813 19.3408 8.77506 19.1804 8.40089 18.9933L6.54788 22.6192C7.10913 22.8953 7.6971 23.1359 8.29399 23.3318ZM17.4432 22.6192C18.0045 22.3341 18.539 22.0045 19.0468 21.6392L16.6414 18.3519C16.3118 18.5924 15.9555 18.8151 15.5813 18.9933L17.4432 22.6192ZM4.94432 21.6303L7.34967 18.343C7.02004 18.1024 6.69933 17.8352 6.40534 17.5412L3.51893 20.4187C3.96436 20.8552 4.44543 21.265 4.94432 21.6303ZM20.4632 20.4365L20.49 20.4098C20.9354 19.9733 21.3452 19.4922 21.7105 18.9933L18.4143 16.5969C18.1737 16.9265 17.8975 17.2472 17.6125 17.5323L17.5679 17.5768L18.9577 18.8864L20.4632 20.4365ZM2.29844 18.9844L5.59465 16.588C5.35412 16.2583 5.1314 15.902 4.94432 15.5367L1.30958 17.3808C1.59465 17.9421 1.92428 18.4766 2.29844 18.9844ZM22.6904 17.3898C22.9755 16.8374 23.216 16.2494 23.412 15.6526L19.5278 14.4053C19.4031 14.7973 19.2428 15.1804 19.0557 15.5457L22.6904 17.3898ZM0.587973 15.6526L4.47216 14.3964C4.34744 14.0045 4.24944 13.6036 4.18708 13.1938L0.151448 13.8263C0.249443 14.441 0.400891 15.0557 0.587973 15.6526ZM23.8486 13.8352C23.9465 13.2205 24 12.588 24 11.9644H19.9198C19.9198 12.3742 19.8842 12.7929 19.8218 13.2027L23.8486 13.8352ZM4.08909 11.9555C4.08909 11.5457 4.12472 11.1269 4.18708 10.7171L0.151448 10.0846C0.0534522 10.6993 0.00890869 11.3318 0 11.9555H4.08909ZM19.8218 10.7261L23.8575 10.0935C23.7595 9.47884 23.6169 8.86414 23.4209 8.26726L19.5367 9.51448C19.6615 9.91537 19.7595 10.3163 19.8218 10.7261ZM4.47216 9.51448C4.59688 9.12249 4.75724 8.73942 4.94432 8.37416L1.30958 6.53007C1.0245 7.0824 0.783964 7.67038 0.587973 8.26726L4.47216 9.51448ZM19.0646 8.38307L22.7082 6.53897C22.4232 5.97773 22.0935 5.44321 21.7194 4.93541L18.4143 7.33185C18.6548 7.66147 18.8775 8.01782 19.0646 8.38307ZM5.59465 7.32294C5.83519 6.99332 6.11136 6.67261 6.40534 6.37862L6.41425 6.36971L3.52784 3.4922L3.51893 3.50111C3.0735 3.94655 2.6637 4.41871 2.29844 4.9265L5.59465 7.32294ZM17.6125 6.39644L18.4855 5.51448L20.49 3.51893L20.4811 3.51002C20.0356 3.0735 19.5635 2.6637 19.0646 2.29844L16.6592 5.58575C16.9889 5.82628 17.3096 6.09354 17.5947 6.38753L17.6125 6.39644ZM7.35857 5.56793C7.6882 5.32739 8.04454 5.11358 8.41871 4.9265L6.5657 1.30067C6.00445 1.58575 5.46993 1.91537 4.96214 2.28062L7.35857 5.56793ZM15.608 4.93541L17.4699 1.30958C16.9087 1.0245 16.3296 0.783964 15.7327 0.587973L14.4677 4.45434C14.8508 4.58797 15.2339 4.74833 15.608 4.93541ZM9.56793 4.45434C9.95991 4.32962 10.3697 4.23163 10.7795 4.16926L10.147 0.151448C9.53229 0.249443 8.90869 0.391982 8.3118 0.587973L9.56793 4.45434ZM13.2472 4.16926L13.8886 0.151448C13.2739 0.053452 12.6414 0 12.0178 0V4.07127C12.4276 4.07127 12.8463 4.1069 13.2472 4.16926Z" fill="#131417"/>
<path d="M12 20.0267V15.9376C11.6526 15.9376 11.314 15.8931 10.9755 15.804L9.90646 19.7506C10.5924 19.9287 11.2962 20.0267 12 20.0267ZM14.0935 19.7506C14.7795 19.5724 15.4298 19.3051 16.0445 18.9488L13.9777 15.412C13.6837 15.5813 13.363 15.7149 13.0334 15.804L14.0935 19.7506ZM7.96436 18.9488L10.0312 15.412C9.73719 15.2428 9.46102 15.029 9.21158 14.7884L9.17595 14.7528L7.87528 16.1158L6.27171 17.657L6.29844 17.6837C6.79733 18.1737 7.35857 18.6013 7.96436 18.9488ZM17.7105 17.6837C18.2094 17.1849 18.6459 16.6325 18.9933 16.0267L15.4209 13.9777C15.2517 14.2717 15.0379 14.539 14.7884 14.7884L17.7105 17.6837ZM5.00668 16.0178L8.57906 13.9777C8.4098 13.6837 8.27617 13.3719 8.18708 13.0423L4.2049 14.0935C4.38307 14.7617 4.65924 15.412 5.00668 16.0178ZM19.804 14.1024C19.9822 13.4254 20.0802 12.7305 20.0802 12.0356H15.9555C15.9555 12.3742 15.9109 12.7216 15.8218 13.0512L19.804 14.1024ZM8.06236 12.0267C8.06236 11.6882 8.1069 11.3408 8.19599 11.0111L4.2049 9.95991C4.02673 10.637 3.92873 11.3318 3.92873 12.0267H8.06236ZM15.8129 11.02L19.804 9.96882C19.6258 9.29176 19.3497 8.64142 19.0022 8.03563L15.4298 10.0757C15.5902 10.3786 15.7238 10.6904 15.8129 11.02ZM8.58797 10.0757C8.75724 9.79064 8.96214 9.51448 9.21158 9.27394L9.22049 9.26503L7.74165 7.80401L6.32517 6.35189L6.29844 6.37862C5.79955 6.8686 5.37194 7.42984 5.01559 8.02673L8.58797 10.0757ZM14.7884 9.27394L16.2494 7.82183L17.7461 6.41425L17.7105 6.37862C17.2116 5.87973 16.6503 5.46102 16.0445 5.10468L13.9777 8.64142C14.2717 8.81069 14.539 9.01559 14.7884 9.25612V9.27394ZM10.0312 8.64142C10.3252 8.47216 10.6459 8.33853 10.9755 8.24944L9.92427 4.30289C9.23831 4.48107 8.58797 4.74833 7.97327 5.10468L10.0312 8.64142ZM13.0245 8.25835L14.0935 4.3118C13.4165 4.13363 12.7127 4.03563 12.0089 4.03563V8.12472C12.3474 8.12472 12.6949 8.16926 13.0245 8.25835Z" fill="#131417"/>
</g>
<defs>
<clipPath id="clip0_324_2386">
<rect width="24" height="24" fill="white"/>
</clipPath>
</defs>
</svg>
