<svg width="48" height="48" viewBox="0 0 48 48" fill="none" xmlns="http://www.w3.org/2000/svg">
<rect x="1" y="1" width="46" height="46" rx="21" stroke="#824600" stroke-opacity="0.15" stroke-width="2"/>
<path d="M23.9993 13.5005C22.167 13.5005 20.6636 14.9084 20.5119 16.7014C18.1247 17.7057 16.2628 19.7084 15.4477 22.1883C15.2753 22.713 15.5608 23.2781 16.0855 23.4506C16.6102 23.623 17.1753 23.3375 17.3477 22.8128C17.9412 21.0071 19.2512 19.5245 20.9402 18.7024C21.5382 19.775 22.684 20.5005 23.9993 20.5005C25.9323 20.5005 27.4993 18.9335 27.4993 17.0005C27.4993 15.0675 25.9323 13.5005 23.9993 13.5005Z" fill="#824600"/>
<path d="M30.7868 19.0901C30.424 18.6737 29.7923 18.6303 29.3759 18.9932C28.9595 19.356 28.9161 19.9877 29.279 20.4041C30.351 21.6343 30.9992 23.2404 30.9992 25.0004C30.9992 25.1687 30.9933 25.3355 30.9817 25.5006C29.7522 25.4804 28.5488 26.1101 27.8903 27.2505C26.9239 28.9243 27.4974 31.0646 29.1713 32.031C30.8451 32.9974 32.9854 32.4239 33.9518 30.7501C34.8668 29.1653 34.4013 27.1623 32.9285 26.1335C32.9752 25.762 32.9992 25.3838 32.9992 25.0004C32.9992 22.7392 32.1641 20.6707 30.7868 19.0901Z" fill="#824600"/>
<path d="M20.1002 27.2504C19.1338 25.5766 16.9935 25.0031 15.3197 25.9695C13.6459 26.9359 13.0724 29.0762 14.0388 30.75C14.9552 32.3373 16.9275 32.9351 18.5564 32.1684C20.0676 33.3174 21.9547 34.0002 23.9992 34.0002C24.5747 34.0002 25.1385 33.946 25.6855 33.8424C26.2281 33.7394 26.5846 33.2161 26.4816 32.6735C26.3787 32.1309 25.8554 31.7744 25.3128 31.8773C24.8881 31.9579 24.4491 32.0002 23.9992 32.0002C22.5435 32.0002 21.1931 31.5568 20.0735 30.7968C20.7025 29.7429 20.7575 28.3888 20.1002 27.2504Z" fill="#824600"/>
</svg>
