<svg width="24" height="24" viewBox="0 0 24 24" fill="none" xmlns="http://www.w3.org/2000/svg">
<path d="M22.001 11.9985C22.001 13.1031 21.1056 13.9985 20.001 13.9985C18.8964 13.9985 18.001 13.1031 18.001 11.9985C18.001 10.8939 18.8964 9.99854 20.001 9.99854C21.1056 9.99854 22.001 10.8939 22.001 11.9985Z" fill="#79818D"/>
<path d="M14.002 11.9985C14.002 13.1031 13.1066 13.9985 12.002 13.9985C10.8974 13.9985 10.002 13.1031 10.002 11.9985C10.002 10.8939 10.8974 9.99854 12.002 9.99854C13.1066 9.99854 14.002 10.8939 14.002 11.9985Z" fill="#79818D"/>
<path d="M6.00195 11.9985C6.00195 13.1031 5.10652 13.9985 4.00195 13.9985C2.89738 13.9985 2.00195 13.1031 2.00195 11.9985C2.00195 10.8939 2.89738 9.99854 4.00195 9.99854C5.10652 9.99854 6.00195 10.8939 6.00195 11.9985Z" fill="#79818D"/>
</svg>
